<svg xmlns="http://www.w3.org/2000/svg" viewBox="0 0 32 32" fill="none">
  <!-- Background circle -->
  <circle cx="16" cy="16" r="16" fill="#7c3aed"/>
  <!-- Left lens — cat-eye agatada, peak upper-left -->
  <path
    d="M15 13.6 C 12.5 14.8, 9 15.8, 6 15.6 C 4 15.4, 3 13.6, 3.6 11.2 C 4.1 9.1, 6.3 8.3, 9 8.8 C 12.4 9.5, 14.5 11.5, 15 13.6 Z"
    fill="none" stroke="white" stroke-width="1.6" stroke-linecap="round" stroke-linejoin="round"/>
  <!-- Right lens — mirror -->
  <path
    d="M17 13.6 C 19.5 14.8, 23 15.8, 26 15.6 C 28 15.4, 29 13.6, 28.4 11.2 C 27.9 9.1, 25.7 8.3, 23 8.8 C 19.6 9.5, 17.5 11.5, 17 13.6 Z"
    fill="none" stroke="white" stroke-width="1.6" stroke-linecap="round" stroke-linejoin="round"/>
  <!-- Bridge -->
  <path d="M15 12.4 L17 12.4" stroke="white" stroke-width="1.6" stroke-linecap="round"/>
  <!-- Decorative dots on upper peaks (feminine accent) -->
  <circle cx="4.8" cy="9.6" r="0.7" fill="white"/>
  <circle cx="27.2" cy="9.6" r="0.7" fill="white"/>
</svg>
